# xmcd
#
# Track frame offsets:
#	150
#	14853
#	33463
#	54378
#	66301
#	82141
#	97296
#	110269
#	128259
#	142421
#	159052
#	174269
#	195568
#
# Disc length: 2846 seconds
# Revision: 2
# Processed by: cddbd v1.5.2PL0 Copyright (c) Steve Scherf et al.
# Submitted via: dBpowerAMP V12.0
#
DISCID=b30b1c0d
DTITLE=Mikki Daniel - Gotta Be a Cowgirl
DYEAR=2013
DGENRE=Country
TTITLE0=I've Just Gotta Be a Cowgirl
TTITLE1=Texas Kerosene
TTITLE2=Raised Me a Cowgirl
TTITLE3=Big Dreams
TTITLE4=Just Like You
TTITLE5=I Went Ridin'
TTITLE6=Skyball Paint
TTITLE7=His Mama's Love
TTITLE8=Girl's Gotta Do
TTITLE9=Johnny, Harness the Team
TTITLE10=Ride 'Em, Cowgirl
TTITLE11=How Great Thou Art
TTITLE12=Texas Kerosene (Radio Edit)
EXTD=
EXTT0=
EXTT1=
EXTT2=
EXTT3=
EXTT4=
EXTT5=
EXTT6=
EXTT7=
EXTT8=
EXTT9=
EXTT10=
EXTT11=
EXTT12=
PLAYORDER=
